<svg width="237" height="38" viewBox="0 0 237 38" fill="none" xmlns="http://www.w3.org/2000/svg">
<path fill-rule="evenodd" clip-rule="evenodd" d="M40.4793 15.8627C40.4793 16.664 40.4763 27.4662 40.4763 29.724C42.4121 28.5948 51.6667 23.1955 52.3542 22.7948C52.3542 21.9923 52.3542 11.1914 52.3542 8.93359C50.419 10.0622 41.165 15.4614 40.4793 15.8627Z" fill="#2C2C2B"/>
<path fill-rule="evenodd" clip-rule="evenodd" d="M26.9944 23.7328C26.9932 24.5341 26.9908 35.3344 26.9908 37.5922C28.9255 36.463 38.1818 31.0632 38.8694 30.6631C38.8694 29.86 38.8694 19.0584 38.8694 16.8007C36.9342 17.9292 27.6808 23.3309 26.9944 23.7328Z" fill="#2C2C2B"/>
<path fill-rule="evenodd" clip-rule="evenodd" d="M0.0178223 8.93359C0.0178223 11.1908 0.0178223 21.9923 0.0178223 22.7948C0.706544 23.1955 9.96291 28.596 11.8969 29.7252C11.8969 27.4662 11.8969 16.664 11.8969 15.8627C11.2088 15.4608 1.95303 10.0628 0.0178223 8.93359Z" fill="#D9DBDC"/>
<path fill-rule="evenodd" clip-rule="evenodd" d="M13.506 16.8007C13.506 19.0578 13.506 29.8606 13.506 30.6631C14.1917 31.0632 23.4493 36.4648 25.3845 37.594C25.3845 35.3344 25.3845 24.5347 25.3845 23.7328C24.6969 23.3303 15.44 17.9298 13.506 16.8007Z" fill="#D9DBDC"/>
<path fill-rule="evenodd" clip-rule="evenodd" d="M0.822906 7.52526C2.75811 8.65384 12.0145 14.0525 12.702 14.4532C13.3878 14.0519 22.6412 8.65445 24.5752 7.52526C22.6412 6.39608 13.3878 0.995612 12.702 0.59375C12.0133 0.995612 2.75692 6.39608 0.822906 7.52526Z" fill="#C74E62"/>
<path fill-rule="evenodd" clip-rule="evenodd" d="M27.7937 7.52526C29.7307 8.65384 38.9877 14.0525 39.6752 14.4532C40.3616 14.0519 49.6143 8.65445 51.5484 7.52526C49.6143 6.39608 40.3616 0.995612 39.6752 0.59375C38.9865 0.995612 29.7307 6.39608 27.7937 7.52526Z" fill="#C74E62"/>
<path fill-rule="evenodd" clip-rule="evenodd" d="M14.3095 15.3918C16.2465 16.5215 25.5023 21.9232 26.1892 22.3233C26.8773 21.9226 36.1319 16.5221 38.0659 15.3918C36.1319 14.2644 26.8773 8.86453 26.1892 8.46387C25.5023 8.86453 16.2465 14.2644 14.3095 15.3918Z" fill="#C74E62"/>
<path fill-rule="evenodd" clip-rule="evenodd" d="M66.2629 18.8742C66.2629 19.6376 66.2629 20.2837 66.2695 20.8119C66.2754 21.3407 66.282 21.7516 66.2957 22.0451C66.3213 22.4043 66.4826 22.6263 66.7731 22.7171L68.6648 23.2718L68.7035 24.055C67.1606 24.0153 65.779 23.9961 64.5587 23.9961C63.2997 23.9961 61.8276 24.0153 60.1489 24.055L60.0585 23.2718L62.2473 22.6197C62.5503 22.5024 62.7122 22.3062 62.7247 22.0253C62.7378 21.7708 62.7437 21.4448 62.7509 21.0405C62.7574 20.6422 62.7634 20.1333 62.7634 19.5203V11.5336C62.7634 10.7702 62.7574 10.1241 62.7509 9.6019C62.7437 9.08032 62.7378 8.66883 62.7247 8.37526C62.6991 8.04919 62.5378 7.8206 62.2473 7.70991L60.0585 7.05717L60.0198 6.27451C61.7306 6.31361 63.2223 6.33287 64.4807 6.33287C65.7206 6.33287 67.0892 6.31361 68.5874 6.27451L68.6648 7.05717L66.7731 7.61183C66.4695 7.72914 66.3082 7.92526 66.2957 8.2056C66.282 8.46007 66.2754 8.78613 66.2695 9.191C66.2629 9.58925 66.2629 10.0976 66.2629 10.7112V14.3262H67.3023C68.0451 14.3262 68.6779 14.2672 69.2006 14.1625C69.7238 14.0524 70.1691 13.8497 70.5238 13.5495C70.8858 13.2493 71.1893 12.8252 71.4346 12.2772C71.6798 11.7291 71.9054 11.018 72.1061 10.1373C72.3192 9.20425 72.5126 8.47994 72.6811 7.95114C72.8549 7.41633 73.0615 7.02469 73.3067 6.77022C73.5525 6.51575 73.8686 6.35934 74.2496 6.29377C74.6365 6.22819 75.1467 6.1963 75.7735 6.1963C76.5158 6.1963 77.4777 6.22819 78.6528 6.29377L78.7242 7.28578C78.0331 7.28578 77.4456 7.37723 76.9676 7.54688C76.4896 7.71653 76.0765 7.94512 75.7342 8.22486C75.3985 8.5058 75.108 8.83247 74.8758 9.19763C74.6431 9.56941 74.4306 9.95442 74.2431 10.3455C74.043 10.7569 73.843 11.1486 73.649 11.5204C73.449 11.8988 73.2424 12.2579 73.0097 12.5906C72.7835 12.9293 72.5323 13.2559 72.2543 13.5561C71.9769 13.8629 71.6667 14.1433 71.331 14.3978C71.8346 15.0505 72.3323 15.7555 72.8353 16.5117C73.3329 17.2685 73.8043 17.9995 74.2431 18.6979C74.7211 19.4679 75.1794 20.1598 75.6116 20.7854C76.0509 21.4123 76.4836 21.9212 76.9093 22.3122C77.2515 22.6197 77.5873 22.8344 77.923 22.9517C78.2528 23.0757 78.6593 23.187 79.1242 23.2916L79.1951 24.0352C78.898 24.0875 78.5689 24.12 78.2266 24.1393C77.8777 24.1591 77.5099 24.1658 77.1164 24.1658C76.7158 24.1658 76.367 24.1591 76.0705 24.1393C75.7735 24.12 75.5086 24.0875 75.2758 24.0418C75.0371 23.9961 74.8306 23.9371 74.6365 23.8529C74.4496 23.7675 74.2627 23.6694 74.0752 23.5593C73.6424 23.2784 73.2168 22.8477 72.7972 22.2737C72.3703 21.6992 71.9382 21.0531 71.4989 20.3222C71.131 19.7158 70.7566 19.0962 70.3756 18.4633C69.9881 17.8298 69.575 17.2102 69.1363 16.5966C69.0202 16.4335 68.9166 16.2903 68.8261 16.1664C68.7297 16.0491 68.6261 15.9444 68.5226 15.859C68.413 15.7814 68.2904 15.7158 68.1416 15.6834C67.9999 15.6443 67.8124 15.6244 67.5868 15.6244H66.2629V18.8742ZM83.7596 14.9717C83.7596 17.354 84.2054 19.2983 85.0834 20.792C85.968 22.293 87.2788 23.0438 89.0217 23.0438C90.6486 23.0438 91.8885 22.3778 92.7344 21.0597C93.5868 19.7423 94.0124 17.7907 94.0124 15.2003C94.0124 12.7669 93.5672 10.8484 92.6695 9.44548C91.7719 8.04919 90.4742 7.34414 88.7765 7.34414C87.1621 7.34414 85.9228 7.97701 85.0578 9.23673C84.1923 10.5025 83.7596 12.4143 83.7596 14.9717ZM97.8739 14.802C97.8739 17.7059 97.0084 20.0551 95.272 21.8424C93.535 23.6376 91.3331 24.5309 88.6604 24.5309C86.0519 24.5309 83.9405 23.6893 82.3333 21.9994C80.7255 20.3096 79.9243 18.1041 79.9243 15.3765C79.9243 12.5707 80.7642 10.2805 82.4494 8.49918C84.128 6.72449 86.3615 5.83716 89.1318 5.83716C91.7594 5.83716 93.8708 6.65291 95.4714 8.29044C97.0733 9.92796 97.8739 12.1009 97.8739 14.802ZM118.605 21.9537C118.624 22.293 118.786 22.515 119.077 22.6197L121.272 23.2718L121.311 24.055C119.568 24.0153 118.083 23.9961 116.843 23.9961C115.609 23.9961 114.241 24.0153 112.737 24.055L112.666 23.2718L114.557 22.7171C114.847 22.6124 115.003 22.4169 115.028 22.1234C115.054 21.6409 115.067 20.8053 115.067 19.6177V15.4872H106.764V18.8742C106.764 20.401 106.777 21.458 106.797 22.0451C106.823 22.3911 106.984 22.6124 107.274 22.7171L109.166 23.2718L109.205 24.055C107.662 24.0153 106.28 23.9961 105.06 23.9961C103.813 23.9961 102.341 24.0153 100.65 24.055L100.56 23.2718L102.749 22.6197C103.039 22.515 103.2 22.3189 103.226 22.0253C103.252 21.5296 103.265 20.6946 103.265 19.5203V11.5336C103.265 10.0134 103.252 8.96241 103.226 8.37526C103.2 8.03596 103.039 7.81398 102.749 7.70991L100.56 7.05717L100.521 6.27451C102.257 6.31361 103.749 6.33287 104.982 6.33287C106.222 6.33287 107.59 6.31361 109.089 6.27451L109.166 7.05717L107.274 7.61183C106.984 7.71651 106.823 7.91202 106.797 8.2056C106.777 8.70131 106.764 9.53692 106.764 10.7112V13.8431H115.067V11.4548C115.067 9.92795 115.054 8.87096 115.028 8.28381C115.003 7.9379 114.847 7.71651 114.557 7.61183L112.666 7.05717L112.626 6.27451C114.163 6.31361 115.545 6.33287 116.765 6.33287C118.018 6.33287 119.483 6.31361 121.175 6.27451L121.272 7.05717L119.077 7.70991C118.786 7.81398 118.624 8.0101 118.605 8.30367C118.579 8.79938 118.567 9.63439 118.567 10.8087V18.7761C118.567 20.3096 118.579 21.3666 118.605 21.9537ZM139.085 22.6389C138.304 23.1737 137.335 23.6243 136.18 23.9895C135.03 24.3486 133.881 24.5309 132.752 24.5309C130.027 24.5309 127.87 23.7218 126.282 22.1107C124.694 20.4985 123.9 18.352 123.9 15.6635C123.9 12.7404 124.797 10.3786 126.605 8.55815C128.406 6.74376 130.737 5.83716 133.604 5.83716C135.457 5.83716 137.251 6.21556 138.988 6.98559C138.575 8.68868 138.2 10.4369 137.878 12.2182L137.135 12.3355L135.605 7.74901C135.024 7.54688 134.371 7.4422 133.636 7.4422C131.757 7.4422 130.291 8.10092 129.233 9.43224C128.174 10.7569 127.644 12.5058 127.644 14.6847C127.644 17.2493 128.238 19.1413 129.439 20.3619C130.64 21.5885 132.532 22.2016 135.134 22.2016C136.328 22.2016 137.613 22.0776 138.975 21.8364L139.085 22.6389ZM142.513 12.5058L141.758 12.6429L140.867 6.41108L140.996 6.27451C143.469 6.31361 145.793 6.33287 147.963 6.33287H151.423C153.593 6.33287 155.917 6.31361 158.402 6.27451L158.512 6.41108L157.305 12.5058L156.549 12.6429L155.414 7.97701H151.385V18.8934C151.385 20.3222 151.398 21.3275 151.423 21.9146C151.449 22.2539 151.604 22.4759 151.894 22.5607L154.18 23.2718L154.219 24.055C152.747 24.0153 151.229 23.9961 149.68 23.9961C148.434 23.9961 146.923 24.0153 145.161 24.055L145.083 23.2718L147.376 22.5607C147.666 22.4759 147.82 22.2804 147.846 21.9868C147.872 21.4905 147.885 20.6555 147.885 19.4872V7.97701H143.798L142.513 12.5058ZM170.243 15.3374C167.48 15.3374 165.595 15.6112 164.588 16.1592C163.574 16.7079 163.07 17.6277 163.07 18.9331C163.07 20.1399 163.406 21.0014 164.078 21.5037C164.743 22.006 165.653 22.2539 166.796 22.2539C168.1 22.2539 169.23 22.0325 170.205 21.5885L170.243 15.3374ZM161.069 7.46144C163.529 6.37858 165.705 5.83716 167.59 5.83716C169.521 5.83716 171.024 6.3461 172.103 7.36399C173.182 8.38187 173.717 9.85636 173.704 11.7814L173.607 19.735C173.595 20.3812 173.614 20.9033 173.652 21.301C173.698 21.6926 173.814 21.9994 173.995 22.2082C174.176 22.4169 174.453 22.5673 174.821 22.6455C175.183 22.7298 175.673 22.7761 176.293 22.7887L176.39 23.5395C175.847 23.7549 175.183 23.9702 174.402 24.185C173.62 24.407 173.091 24.5117 172.813 24.5117C171.593 24.5117 170.754 23.8722 170.295 22.5998C168.533 23.8854 166.867 24.5309 165.304 24.5309C163.548 24.5309 162.141 24.0941 161.076 23.2194C160.01 22.3519 159.481 21.1187 159.481 19.5203C159.481 17.5621 160.346 16.1141 162.076 15.181C163.813 14.2546 166.531 13.7908 170.243 13.7908L170.263 12.297C170.276 10.8676 169.914 9.81066 169.185 9.12605C168.449 8.43422 167.325 8.0883 165.815 8.0883C164.665 8.0883 163.232 8.31028 161.501 8.74042L161.069 7.46144ZM196.386 21.9537C196.405 22.293 196.566 22.515 196.857 22.6197L199.052 23.2718L199.091 24.055C197.348 24.0153 195.862 23.9961 194.623 23.9961C193.39 23.9961 192.021 24.0153 190.517 24.055L190.445 23.2718L192.337 22.7171C192.628 22.6124 192.783 22.4169 192.809 22.1234C192.834 21.6409 192.847 20.8053 192.847 19.6177V15.4872H184.545V18.8742C184.545 20.401 184.557 21.458 184.577 22.0451C184.602 22.3911 184.764 22.6124 185.055 22.7171L186.946 23.2718L186.985 24.055C185.442 24.0153 184.06 23.9961 182.84 23.9961C181.594 23.9961 180.122 24.0153 178.43 24.055L178.34 23.2718L180.528 22.6197C180.819 22.515 180.981 22.3189 181.006 22.0253C181.033 21.5296 181.045 20.6946 181.045 19.5203V11.5336C181.045 10.0134 181.033 8.96241 181.006 8.37526C180.981 8.03596 180.819 7.81398 180.528 7.70991L178.34 7.05717L178.301 6.27451C180.038 6.31361 181.529 6.33287 182.762 6.33287C184.002 6.33287 185.371 6.31361 186.869 6.27451L186.946 7.05717L185.055 7.61183C184.764 7.71651 184.602 7.91202 184.577 8.2056C184.557 8.70131 184.545 9.53692 184.545 10.7112V13.8431H192.847V11.4548C192.847 9.92795 192.834 8.87096 192.809 8.28381C192.783 7.9379 192.628 7.71651 192.337 7.61183L190.445 7.05717L190.407 6.27451C191.943 6.31361 193.325 6.33287 194.545 6.33287C195.798 6.33287 197.264 6.31361 198.955 6.27451L199.052 7.05717L196.857 7.70991C196.566 7.81398 196.405 8.0101 196.386 8.30367C196.359 8.79938 196.346 9.63439 196.346 10.8087V18.7761C196.346 20.3096 196.359 21.3666 196.386 21.9537ZM202.416 12.5058L201.66 12.6429L200.769 6.41108L200.898 6.27451C203.371 6.31361 205.696 6.33287 207.865 6.33287H211.326C213.495 6.33287 215.819 6.31361 218.305 6.27451L218.415 6.41108L217.207 12.5058L216.451 12.6429L215.316 7.97701H211.287V18.8934C211.287 20.3222 211.3 21.3275 211.326 21.9146C211.352 22.2539 211.506 22.4759 211.796 22.5607L214.083 23.2718L214.121 24.055C212.649 24.0153 211.132 23.9961 209.582 23.9961C208.336 23.9961 206.825 24.0153 205.063 24.055L204.985 23.2718L207.278 22.5607C207.568 22.4759 207.723 22.2804 207.749 21.9868C207.774 21.4905 207.787 20.6555 207.787 19.4872V7.97701H203.701L202.416 12.5058ZM230.146 15.3374C227.382 15.3374 225.497 15.6112 224.491 16.1592C223.476 16.7079 222.973 17.6277 222.973 18.9331C222.973 20.1399 223.308 21.0014 223.98 21.5037C224.645 22.006 225.555 22.2539 226.698 22.2539C228.002 22.2539 229.132 22.0325 230.107 21.5885L230.146 15.3374ZM220.971 7.46144C223.431 6.37858 225.607 5.83716 227.492 5.83716C229.423 5.83716 230.927 6.3461 232.005 7.36399C233.084 8.38187 233.62 9.85636 233.606 11.7814L233.509 19.735C233.497 20.3812 233.516 20.9033 233.555 21.301C233.6 21.6926 233.716 21.9994 233.898 22.2082C234.078 22.4169 234.355 22.5673 234.724 22.6455C235.085 22.7298 235.576 22.7761 236.195 22.7887L236.292 23.5395C235.75 23.7549 235.085 23.9702 234.304 24.185C233.522 24.407 232.993 24.5117 232.715 24.5117C231.495 24.5117 230.656 23.8722 230.197 22.5998C228.435 23.8854 226.769 24.5309 225.207 24.5309C223.451 24.5309 222.043 24.0941 220.978 23.2194C219.912 22.3519 219.383 21.1187 219.383 19.5203C219.383 17.5621 220.249 16.1141 221.979 15.181C223.715 14.2546 226.433 13.7908 230.146 13.7908L230.165 12.297C230.178 10.8676 229.816 9.81066 229.087 9.12605C228.351 8.43422 227.228 8.0883 225.717 8.0883C224.567 8.0883 223.134 8.31028 221.403 8.74042L220.971 7.46144Z" fill="#1F211D"/>
<path fill-rule="evenodd" clip-rule="evenodd" d="M125.487 30.9699C125.487 31.1564 125.487 31.314 125.489 31.4428C125.49 31.5715 125.492 31.672 125.495 31.7436C125.502 31.8308 125.541 31.8849 125.612 31.9072L126.073 32.0426L126.083 32.2339C125.706 32.2242 125.369 32.2194 125.071 32.2194C124.765 32.2194 124.405 32.2242 123.996 32.2339L123.974 32.0426L124.508 31.8837C124.582 31.8548 124.621 31.8073 124.624 31.7388C124.628 31.6768 124.629 31.5968 124.63 31.4987C124.632 31.4013 124.634 31.2773 124.634 31.1275V29.1802C124.634 28.9937 124.632 28.8361 124.63 28.7091C124.629 28.5816 124.628 28.4811 124.624 28.4096C124.618 28.3301 124.579 28.2748 124.508 28.2471L123.974 28.0883L123.965 27.8976C124.382 27.9072 124.746 27.9114 125.053 27.9114C125.355 27.9114 125.689 27.9072 126.054 27.8976L126.073 28.0883L125.612 28.2231C125.538 28.2519 125.499 28.3001 125.495 28.3687C125.492 28.4306 125.49 28.51 125.489 28.6087C125.487 28.7055 125.487 28.83 125.487 28.9792V29.8612H125.741C125.921 29.8612 126.076 29.8467 126.204 29.8215C126.331 29.7944 126.44 29.7445 126.527 29.6717C126.615 29.5983 126.689 29.4948 126.748 29.3613C126.808 29.2277 126.864 29.0545 126.912 28.8391C126.964 28.6117 127.011 28.4354 127.052 28.3061C127.095 28.1755 127.146 28.0805 127.205 28.0179C127.265 27.956 127.342 27.9181 127.435 27.9018C127.529 27.8862 127.654 27.8784 127.806 27.8784C127.988 27.8784 128.223 27.8862 128.509 27.9018L128.526 28.1436C128.358 28.1436 128.214 28.1659 128.098 28.2074C127.981 28.2489 127.881 28.3049 127.797 28.3735C127.715 28.4414 127.644 28.5208 127.588 28.6105C127.531 28.7007 127.479 28.7952 127.433 28.8902C127.385 28.9907 127.336 29.0863 127.289 29.1766C127.24 29.2686 127.189 29.3565 127.133 29.4377C127.078 29.5201 127.016 29.6001 126.948 29.6735C126.881 29.7481 126.805 29.816 126.723 29.8786C126.846 30.038 126.968 30.2095 127.09 30.3942C127.211 30.5789 127.326 30.757 127.433 30.9272C127.55 31.1149 127.662 31.2833 127.767 31.4367C127.874 31.5889 127.98 31.7135 128.084 31.8085C128.167 31.8837 128.249 31.9361 128.331 31.9643C128.411 31.995 128.51 32.0221 128.624 32.0474L128.641 32.2291C128.569 32.2417 128.488 32.2495 128.405 32.2543C128.32 32.2591 128.23 32.2603 128.134 32.2603C128.036 32.2603 127.952 32.2591 127.879 32.2543C127.806 32.2495 127.742 32.2417 127.686 32.2303C127.627 32.2194 127.577 32.205 127.529 32.1845C127.484 32.1641 127.438 32.14 127.393 32.1123C127.287 32.0443 127.183 31.9391 127.08 31.7989C126.977 31.6593 126.871 31.5017 126.764 31.323C126.675 31.175 126.583 31.024 126.49 30.87C126.396 30.7154 126.295 30.5645 126.188 30.4147C126.159 30.375 126.134 30.3401 126.112 30.31C126.089 30.2811 126.064 30.2558 126.039 30.2348C126.012 30.2161 125.981 30.1999 125.945 30.1921C125.911 30.1825 125.865 30.1776 125.81 30.1776H125.487V30.9699ZM129.754 30.0182C129.754 30.5994 129.863 31.0734 130.077 31.438C130.293 31.8043 130.613 31.9872 131.038 31.9872C131.435 31.9872 131.737 31.8248 131.943 31.5029C132.151 31.1817 132.255 30.7058 132.255 30.0741C132.255 29.4804 132.147 29.0129 131.927 28.6706C131.708 28.3301 131.392 28.1581 130.978 28.1581C130.585 28.1581 130.282 28.3127 130.071 28.6195C129.86 28.9287 129.754 29.3944 129.754 30.0182ZM133.197 29.9773C133.197 30.6853 132.985 31.2581 132.562 31.6942C132.139 32.1322 131.601 32.35 130.949 32.35C130.314 32.35 129.799 32.1442 129.407 31.7327C129.014 31.3206 128.819 30.7822 128.819 30.1175C128.819 29.4329 129.024 28.8746 129.435 28.4396C129.845 28.0071 130.389 27.7905 131.065 27.7905C131.705 27.7905 132.22 27.9897 132.611 28.3891C133.001 28.7886 133.197 29.3185 133.197 29.9773ZM138.253 31.7213C138.258 31.8043 138.297 31.8584 138.368 31.8837L138.903 32.0426L138.912 32.2339C138.487 32.2242 138.125 32.2194 137.823 32.2194C137.522 32.2194 137.188 32.2242 136.822 32.2339L136.804 32.0426L137.266 31.9072C137.336 31.8819 137.374 31.8344 137.381 31.7628C137.387 31.6449 137.39 31.441 137.39 31.1516V30.1439H135.365V30.9699C135.365 31.3429 135.368 31.6004 135.373 31.7436C135.379 31.8278 135.419 31.8819 135.49 31.9072L135.951 32.0426L135.96 32.2339C135.584 32.2242 135.247 32.2194 134.949 32.2194C134.645 32.2194 134.287 32.2242 133.874 32.2339L133.851 32.0426L134.385 31.8837C134.457 31.8584 134.496 31.8109 134.502 31.7388C134.508 31.6178 134.512 31.4145 134.512 31.1275V29.1802C134.512 28.809 134.508 28.5533 134.502 28.4096C134.496 28.3271 134.457 28.273 134.385 28.2471L133.851 28.0883L133.842 27.8976C134.266 27.9072 134.629 27.9114 134.931 27.9114C135.233 27.9114 135.566 27.9072 135.932 27.8976L135.951 28.0883L135.49 28.2231C135.419 28.2489 135.379 28.2971 135.373 28.3687C135.368 28.489 135.365 28.6929 135.365 28.9792V29.7433H137.39V29.1609C137.39 28.7885 137.387 28.5311 137.381 28.3873C137.374 28.3031 137.336 28.2489 137.266 28.2231L136.804 28.0883L136.795 27.8976C137.169 27.9072 137.506 27.9114 137.805 27.9114C138.109 27.9114 138.467 27.9072 138.88 27.8976L138.903 28.0883L138.368 28.2471C138.297 28.273 138.258 28.3205 138.253 28.3921C138.247 28.513 138.243 28.717 138.243 29.0033V30.9464C138.243 31.3206 138.247 31.5781 138.253 31.7213ZM143.248 31.8885C143.057 32.0185 142.821 32.1286 142.539 32.2182C142.259 32.3054 141.979 32.35 141.703 32.35C141.039 32.35 140.512 32.1526 140.125 31.7592C139.738 31.3664 139.545 30.843 139.545 30.1872C139.545 29.4743 139.763 28.8986 140.204 28.4541C140.643 28.0119 141.212 27.7905 141.911 27.7905C142.362 27.7905 142.801 27.8832 143.224 28.0709C143.123 28.486 143.032 28.9131 142.954 29.3468L142.772 29.3757L142.399 28.2574C142.257 28.2074 142.098 28.1822 141.919 28.1822C141.461 28.1822 141.103 28.3434 140.845 28.6676C140.587 28.9907 140.458 29.4172 140.458 29.9484C140.458 30.5735 140.602 31.0355 140.895 31.3327C141.188 31.6323 141.649 31.782 142.284 31.782C142.576 31.782 142.889 31.7514 143.221 31.693L143.248 31.8885ZM146.395 30.1078C145.722 30.1078 145.261 30.1746 145.016 30.3082C144.769 30.4417 144.647 30.6661 144.647 30.9843C144.647 31.2791 144.728 31.4891 144.892 31.6112C145.054 31.7339 145.276 31.7947 145.554 31.7947C145.873 31.7947 146.148 31.7406 146.386 31.6323L146.395 30.1078ZM144.158 28.187C144.758 27.9229 145.289 27.7905 145.748 27.7905C146.219 27.7905 146.587 27.9151 146.849 28.1635C147.112 28.4114 147.243 28.7711 147.24 29.2403L147.216 31.1805C147.213 31.3375 147.217 31.465 147.227 31.5625C147.238 31.6575 147.266 31.7327 147.31 31.7833C147.354 31.8344 147.422 31.8705 147.512 31.8904C147.6 31.9108 147.72 31.9216 147.871 31.9246L147.895 32.1081C147.762 32.1605 147.6 32.2128 147.41 32.2657C147.219 32.3199 147.09 32.3452 147.022 32.3452C146.725 32.3452 146.52 32.1893 146.409 31.8789C145.978 32.1923 145.572 32.35 145.191 32.35C144.763 32.35 144.419 32.2435 144.16 32.0299C143.899 31.8188 143.77 31.5174 143.77 31.1275C143.77 30.6505 143.982 30.2974 144.404 30.07C144.827 29.8438 145.49 29.7301 146.395 29.7301L146.401 29.3661C146.403 29.0177 146.316 28.7597 146.138 28.593C145.958 28.424 145.684 28.3398 145.315 28.3398C145.035 28.3398 144.686 28.3939 144.263 28.4992L144.158 28.187ZM152.392 29.0033V30.9464C152.392 31.1323 152.393 31.29 152.395 31.4205C152.396 31.5493 152.398 31.6497 152.402 31.7213C152.408 31.8043 152.447 31.8584 152.521 31.8837L153.052 32.0426L153.061 32.2339C152.641 32.2242 152.278 32.2194 151.978 32.2194C151.669 32.2194 151.336 32.2242 150.977 32.2339L150.958 32.0426L151.414 31.9072C151.489 31.8789 151.528 31.8308 151.529 31.7628C151.536 31.7008 151.54 31.6196 151.542 31.521C151.543 31.4205 151.543 31.2978 151.543 31.1516V28.3223H150.455C150.427 28.9967 150.348 29.6242 150.217 30.2035C150.087 30.7822 149.904 31.3267 149.671 31.8374C149.633 31.9234 149.592 31.995 149.547 32.0528C149.499 32.1081 149.446 32.1508 149.382 32.1827C149.32 32.2128 149.246 32.2339 149.161 32.2447C149.076 32.2561 148.972 32.2603 148.849 32.2603C148.652 32.2603 148.421 32.2417 148.153 32.2002L148.129 32.0239C148.277 32.0047 148.407 31.9727 148.516 31.9246C148.629 31.8789 148.716 31.8344 148.784 31.7899C148.946 31.6846 149.093 31.5288 149.23 31.323C149.367 31.1197 149.488 30.8712 149.594 30.5801C149.701 30.2907 149.789 29.9629 149.86 29.6001C149.931 29.2355 149.98 28.8427 150.008 28.4192C150.011 28.3398 149.967 28.2856 149.879 28.2615L149.297 28.0883L149.288 27.8976C149.728 27.9072 150.104 27.9114 150.417 27.9114H151.945C152.258 27.9114 152.622 27.9072 153.034 27.8976L153.052 28.0883L152.521 28.2471C152.45 28.273 152.411 28.3205 152.402 28.3921C152.398 28.4541 152.396 28.5353 152.395 28.6339C152.393 28.7344 152.392 28.8571 152.392 29.0033ZM153.874 29.4172L153.689 29.4503L153.472 27.9307L153.503 27.8976C154.106 27.9072 154.673 27.9114 155.202 27.9114H156.046C156.576 27.9114 157.142 27.9072 157.749 27.8976L157.775 27.9307L157.481 29.4172L157.297 29.4503L157.02 28.3127H156.037V30.9753C156.037 31.323 156.041 31.5685 156.046 31.7117C156.053 31.7947 156.091 31.8488 156.161 31.8693L156.719 32.0426L156.729 32.2339C156.369 32.2242 155.999 32.2194 155.621 32.2194C155.317 32.2194 154.949 32.2242 154.519 32.2339L154.501 32.0426L155.06 31.8693C155.13 31.8488 155.168 31.8007 155.174 31.7291C155.181 31.6082 155.183 31.4049 155.183 31.1197V28.3127H154.187L153.874 29.4172ZM159.695 31.7436C159.695 31.8278 159.734 31.8819 159.814 31.9072L160.281 32.0426L160.29 32.2339C159.913 32.2242 159.58 32.2194 159.288 32.2194C158.985 32.2194 158.626 32.2242 158.213 32.2339L158.191 32.0426L158.725 31.8837C158.795 31.8584 158.835 31.8109 158.841 31.7388C158.847 31.6178 158.851 31.4145 158.851 31.1275V29.1844C158.851 28.8108 158.847 28.5533 158.841 28.4096C158.835 28.3271 158.795 28.273 158.725 28.2471L158.191 28.0883L158.182 27.8976C158.605 27.9072 158.969 27.9114 159.27 27.9114C159.566 27.9114 159.896 27.9072 160.262 27.8976L160.281 28.0883L159.819 28.2231C159.748 28.2489 159.709 28.2971 159.704 28.3687C159.698 28.489 159.695 28.6929 159.695 28.9792V30.8207L161.844 28.6153V28.3873C161.844 28.3031 161.806 28.2489 161.729 28.2231L161.263 28.0883L161.254 27.8976C161.628 27.9072 161.962 27.9114 162.255 27.9114C162.559 27.9114 162.918 27.9072 163.329 27.8976L163.353 28.0883L162.817 28.2471C162.747 28.273 162.709 28.3205 162.702 28.3921C162.696 28.513 162.693 28.717 162.693 29.0033V30.9464C162.693 31.3206 162.696 31.5781 162.702 31.7213C162.709 31.8043 162.747 31.8584 162.817 31.8837L163.353 32.0426L163.362 32.2339C162.937 32.2242 162.577 32.2194 162.277 32.2194C161.979 32.2194 161.647 32.2242 161.282 32.2339L161.263 32.0426L161.724 31.9072C161.796 31.8819 161.833 31.8344 161.839 31.7628C161.846 31.6449 161.849 31.441 161.849 31.1516V29.1609L159.695 31.3664V31.7436ZM168.327 31.7213C168.332 31.8043 168.371 31.8584 168.442 31.8837L168.977 32.0426L168.986 32.2339C168.561 32.2242 168.199 32.2194 167.897 32.2194C167.596 32.2194 167.262 32.2242 166.895 32.2339L166.878 32.0426L167.34 31.9072C167.41 31.8819 167.448 31.8344 167.455 31.7628C167.461 31.6449 167.464 31.441 167.464 31.1516V30.1439H165.439V30.9699C165.439 31.3429 165.442 31.6004 165.447 31.7436C165.453 31.8278 165.493 31.8819 165.564 31.9072L166.025 32.0426L166.034 32.2339C165.658 32.2242 165.321 32.2194 165.023 32.2194C164.719 32.2194 164.361 32.2242 163.948 32.2339L163.925 32.0426L164.459 31.8837C164.53 31.8584 164.57 31.8109 164.576 31.7388C164.582 31.6178 164.586 31.4145 164.586 31.1275V29.1802C164.586 28.809 164.582 28.5533 164.576 28.4096C164.57 28.3271 164.53 28.273 164.459 28.2471L163.925 28.0883L163.916 27.8976C164.34 27.9072 164.703 27.9114 165.005 27.9114C165.307 27.9114 165.64 27.9072 166.006 27.8976L166.025 28.0883L165.564 28.2231C165.493 28.2489 165.453 28.2971 165.447 28.3687C165.442 28.489 165.439 28.6929 165.439 28.9792V29.7433H167.464V29.1609C167.464 28.7885 167.461 28.5311 167.455 28.3873C167.448 28.3031 167.41 28.2489 167.34 28.2231L166.878 28.0883L166.869 27.8976C167.243 27.9072 167.58 27.9114 167.878 27.9114C168.183 27.9114 168.541 27.9072 168.954 27.8976L168.977 28.0883L168.442 28.2471C168.371 28.273 168.332 28.3205 168.327 28.3921C168.321 28.513 168.317 28.717 168.317 29.0033V30.9464C168.317 31.3206 168.321 31.5781 168.327 31.7213ZM171.062 30.9464C171.062 31.3206 171.066 31.5781 171.07 31.7213C171.076 31.8043 171.116 31.8584 171.186 31.8837L171.722 32.0426L171.73 32.2339C171.306 32.2242 170.944 32.2194 170.647 32.2194C170.342 32.2194 169.983 32.2242 169.571 32.2339L169.549 32.0426L170.083 31.8837C170.154 31.8584 170.193 31.8109 170.2 31.7388C170.205 31.6178 170.208 31.4145 170.208 31.1275V29.1844C170.208 28.8108 170.205 28.5533 170.2 28.4096C170.193 28.3271 170.154 28.273 170.083 28.2471L169.549 28.0883L169.539 27.8976C169.963 27.9072 170.326 27.9114 170.627 27.9114H171.472C172.001 27.9114 172.569 27.9072 173.174 27.8976L173.202 27.9307L172.906 29.3709L172.722 29.3998L172.413 28.3223H171.062V30.9464ZM174.522 30.0182C174.522 30.5994 174.631 31.0734 174.845 31.438C175.06 31.8043 175.38 31.9872 175.805 31.9872C176.202 31.9872 176.504 31.8248 176.711 31.5029C176.918 31.1817 177.022 30.7058 177.022 30.0741C177.022 29.4804 176.913 29.0129 176.695 28.6706C176.476 28.3301 176.16 28.1581 175.745 28.1581C175.352 28.1581 175.049 28.3127 174.838 28.6195C174.628 28.9287 174.522 29.3944 174.522 30.0182ZM177.964 29.9773C177.964 30.6853 177.753 31.2581 177.33 31.6942C176.906 32.1322 176.369 32.35 175.717 32.35C175.081 32.35 174.566 32.1442 174.174 31.7327C173.782 31.3206 173.587 30.7822 173.587 30.1175C173.587 29.4329 173.791 28.8746 174.203 28.4396C174.612 28.0071 175.156 27.7905 175.832 27.7905C176.472 27.7905 176.988 27.9897 177.378 28.3891C177.769 28.7886 177.964 29.3185 177.964 29.9773ZM179.679 32.2194C179.397 32.2194 179.051 32.2242 178.642 32.2339L178.619 32.0426L179.153 31.8837C179.227 31.8548 179.267 31.8073 179.27 31.7388C179.273 31.6768 179.274 31.5956 179.276 31.4969C179.277 31.397 179.278 31.2743 179.278 31.1275V29.1369C179.278 28.951 179.277 28.7928 179.276 28.6646C179.274 28.5353 179.273 28.4354 179.27 28.3632C179.263 28.2796 179.224 28.2255 179.153 28.2014L178.619 28.0378L178.61 27.8464C179.03 27.8591 179.394 27.8657 179.698 27.8657C179.762 27.8657 179.846 27.8621 179.947 27.8555C180.049 27.8495 180.172 27.8434 180.317 27.8368C180.461 27.8302 180.581 27.8254 180.676 27.8224C180.771 27.8194 180.846 27.8176 180.898 27.8176C181.442 27.8176 181.85 27.9054 182.123 28.0775C182.395 28.2489 182.53 28.4992 182.53 28.8247C182.53 29.3438 182.203 29.7006 181.548 29.8931C181.909 29.9484 182.188 30.0681 182.387 30.2522C182.587 30.4357 182.688 30.6697 182.688 30.9555C182.688 31.3628 182.512 31.6816 182.162 31.9126C181.814 32.1352 181.329 32.2483 180.708 32.2483C180.573 32.2483 180.415 32.2435 180.237 32.2339C180.059 32.2242 179.874 32.2194 179.679 32.2194ZM180.095 30.1217V31.8597C180.159 31.8789 180.236 31.8915 180.327 31.8994C180.419 31.9072 180.517 31.9126 180.62 31.9126C181.001 31.9126 181.292 31.8326 181.488 31.6768C181.685 31.5192 181.782 31.2948 181.782 31.0018C181.782 30.698 181.683 30.4718 181.483 30.3274C181.283 30.1806 180.959 30.1078 180.511 30.1078C180.445 30.1078 180.378 30.1096 180.307 30.112C180.236 30.1156 180.165 30.1187 180.095 30.1217ZM180.095 29.8131C180.178 29.8197 180.261 29.8227 180.346 29.8227C180.432 29.8227 180.512 29.8227 180.589 29.8227C180.945 29.8227 181.215 29.7511 181.398 29.6079C181.581 29.4666 181.672 29.2566 181.672 28.9792C181.672 28.6929 181.578 28.4859 181.389 28.359C181.2 28.2315 180.929 28.1677 180.58 28.1677C180.496 28.1677 180.412 28.1695 180.331 28.1725C180.248 28.1755 180.168 28.1804 180.095 28.187V29.8131ZM185.858 30.1078C185.184 30.1078 184.724 30.1746 184.478 30.3082C184.231 30.4417 184.108 30.6661 184.108 30.9843C184.108 31.2791 184.191 31.4891 184.354 31.6112C184.516 31.7339 184.738 31.7947 185.017 31.7947C185.335 31.7947 185.61 31.7406 185.848 31.6323L185.858 30.1078ZM183.62 28.187C184.22 27.9229 184.751 27.7905 185.211 27.7905C185.682 27.7905 186.048 27.9151 186.311 28.1635C186.574 28.4114 186.705 28.7711 186.702 29.2403L186.678 31.1805C186.675 31.3375 186.68 31.465 186.689 31.5625C186.7 31.6575 186.728 31.7327 186.773 31.7833C186.817 31.8344 186.884 31.8705 186.974 31.8904C187.062 31.9108 187.182 31.9216 187.333 31.9246L187.357 32.1081C187.224 32.1605 187.062 32.2128 186.872 32.2657C186.681 32.3199 186.552 32.3452 186.485 32.3452C186.187 32.3452 185.982 32.1893 185.87 31.8789C185.441 32.1923 185.034 32.35 184.653 32.35C184.225 32.35 183.882 32.2435 183.622 32.0299C183.362 31.8188 183.233 31.5174 183.233 31.1275C183.233 30.6505 183.444 30.2974 183.866 30.07C184.289 29.8438 184.952 29.7301 185.858 29.7301L185.863 29.3661C185.866 29.0177 185.778 28.7597 185.6 28.593C185.42 28.424 185.146 28.3398 184.778 28.3398C184.497 28.3398 184.148 28.3939 183.726 28.4992L183.62 28.187ZM190.6 30.3635H190.07C190.029 30.3671 189.996 30.3738 189.968 30.3834C189.941 30.3924 189.918 30.4056 189.897 30.4243C189.876 30.4435 189.858 30.4658 189.839 30.4929C189.821 30.5181 189.801 30.5482 189.779 30.5837C189.697 30.7173 189.616 30.8538 189.541 30.9928C189.466 31.1324 189.391 31.2713 189.317 31.4079C189.236 31.5637 189.15 31.7039 189.063 31.8296C188.977 31.9553 188.891 32.0504 188.801 32.1123C188.755 32.14 188.711 32.1641 188.667 32.1845C188.624 32.205 188.576 32.2194 188.519 32.2303C188.464 32.2417 188.403 32.2495 188.334 32.2543C188.264 32.2591 188.182 32.2603 188.086 32.2603C187.893 32.2603 187.721 32.2513 187.569 32.2291L187.555 32.0528C187.678 32.0269 187.785 31.9986 187.877 31.9679C187.966 31.9361 188.05 31.8837 188.124 31.8085C188.209 31.7249 188.297 31.6148 188.388 31.4764C188.48 31.3375 188.571 31.1865 188.662 31.0211C188.739 30.8905 188.813 30.76 188.884 30.6282C188.955 30.4959 189.031 30.3671 189.109 30.2432C188.477 30.0441 188.16 29.6669 188.16 29.1146C188.16 28.7266 188.319 28.424 188.637 28.2092C188.955 27.9957 189.379 27.8874 189.908 27.8874C190.098 27.8874 190.28 27.8928 190.447 27.9006C190.617 27.9084 190.805 27.9114 191.012 27.9114C191.312 27.9114 191.67 27.9072 192.086 27.8976L192.105 28.0883L191.569 28.2471C191.495 28.2748 191.457 28.3235 191.454 28.3921C191.451 28.4541 191.448 28.5353 191.446 28.6339C191.445 28.7344 191.445 28.8571 191.445 29.0033V30.9464C191.445 31.2851 191.448 31.5426 191.454 31.7213C191.457 31.8043 191.495 31.8584 191.569 31.8837L192.105 32.0426L192.114 32.2339C191.689 32.2242 191.328 32.2194 191.029 32.2194C190.728 32.2194 190.397 32.2242 190.037 32.2339L190.015 32.0426L190.476 31.9072C190.55 31.8789 190.588 31.8308 190.592 31.7628C190.594 31.7309 190.596 31.6798 190.597 31.6082C190.599 31.5366 190.6 31.4271 190.6 31.2773V30.3635ZM190.6 28.2838C190.514 28.2772 190.436 28.273 190.363 28.2682C190.29 28.2633 190.226 28.2615 190.171 28.2615C189.445 28.2615 189.083 28.5575 189.083 29.1513C189.083 29.4473 189.172 29.6717 189.352 29.8263C189.533 29.9785 189.821 30.0567 190.218 30.0567H190.6V28.2838ZM196.283 30.9699C196.283 31.1564 196.283 31.314 196.285 31.4428C196.287 31.5715 196.288 31.672 196.291 31.7436C196.298 31.8308 196.337 31.8849 196.408 31.9072L196.869 32.0426L196.879 32.2339C196.503 32.2242 196.166 32.2194 195.868 32.2194C195.561 32.2194 195.201 32.2242 194.792 32.2339L194.77 32.0426L195.304 31.8837C195.378 31.8548 195.417 31.8073 195.421 31.7388C195.424 31.6768 195.425 31.5968 195.427 31.4987C195.429 31.4013 195.43 31.2773 195.43 31.1275V29.1802C195.43 28.9937 195.429 28.8361 195.427 28.7091C195.425 28.5816 195.424 28.4811 195.421 28.4096C195.414 28.3301 195.375 28.2748 195.304 28.2471L194.77 28.0883L194.761 27.8976C195.178 27.9072 195.542 27.9114 195.849 27.9114C196.151 27.9114 196.485 27.9072 196.851 27.8976L196.869 28.0883L196.408 28.2231C196.334 28.2519 196.295 28.3001 196.291 28.3687C196.288 28.4306 196.287 28.51 196.285 28.6087C196.283 28.7055 196.283 28.83 196.283 28.9792V29.8612H196.537C196.718 29.8612 196.873 29.8467 197 29.8215C197.128 29.7944 197.236 29.7445 197.323 29.6717C197.411 29.5983 197.485 29.4948 197.545 29.3613C197.604 29.2277 197.66 29.0545 197.709 28.8391C197.76 28.6117 197.808 28.4354 197.848 28.3061C197.891 28.1755 197.942 28.0805 198.001 28.0179C198.061 27.956 198.138 27.9181 198.231 27.9018C198.326 27.8862 198.45 27.8784 198.603 27.8784C198.784 27.8784 199.019 27.8862 199.305 27.9018L199.323 28.1436C199.154 28.1436 199.01 28.1659 198.894 28.2074C198.778 28.2489 198.677 28.3049 198.593 28.3735C198.512 28.4414 198.441 28.5208 198.384 28.6105C198.328 28.7007 198.275 28.7952 198.229 28.8902C198.181 28.9907 198.132 29.0863 198.085 29.1766C198.036 29.2686 197.986 29.3565 197.929 29.4377C197.874 29.5201 197.812 29.6001 197.745 29.6735C197.677 29.7481 197.601 29.816 197.519 29.8786C197.642 30.038 197.764 30.2095 197.886 30.3942C198.007 30.5789 198.122 30.757 198.229 30.9272C198.346 31.1149 198.458 31.2833 198.563 31.4367C198.67 31.5889 198.776 31.7135 198.88 31.8085C198.963 31.8837 199.045 31.9361 199.127 31.9643C199.207 31.995 199.307 32.0221 199.42 32.0474L199.437 32.2291C199.365 32.2417 199.285 32.2495 199.201 32.2543C199.116 32.2591 199.026 32.2603 198.931 32.2603C198.832 32.2603 198.748 32.2591 198.675 32.2543C198.603 32.2495 198.538 32.2417 198.482 32.2303C198.423 32.2194 198.373 32.205 198.326 32.1845C198.28 32.1641 198.235 32.14 198.189 32.1123C198.083 32.0443 197.979 31.9391 197.877 31.7989C197.773 31.6593 197.667 31.5017 197.561 31.323C197.471 31.175 197.379 31.024 197.286 30.87C197.192 30.7154 197.091 30.5645 196.984 30.4147C196.956 30.375 196.93 30.3401 196.908 30.31C196.885 30.2811 196.86 30.2558 196.835 30.2348C196.808 30.2161 196.778 30.1999 196.742 30.1921C196.707 30.1825 196.661 30.1776 196.606 30.1776H196.283V30.9699ZM200.551 30.0182C200.551 30.5994 200.659 31.0734 200.874 31.438C201.089 31.8043 201.409 31.9872 201.834 31.9872C202.231 31.9872 202.533 31.8248 202.74 31.5029C202.947 31.1817 203.051 30.7058 203.051 30.0741C203.051 29.4804 202.943 29.0129 202.724 28.6706C202.505 28.3301 202.188 28.1581 201.774 28.1581C201.381 28.1581 201.078 28.3127 200.867 28.6195C200.656 28.9287 200.551 29.3944 200.551 30.0182ZM203.993 29.9773C203.993 30.6853 203.782 31.2581 203.359 31.6942C202.935 32.1322 202.397 32.35 201.746 32.35C201.11 32.35 200.595 32.1442 200.203 31.7327C199.811 31.3206 199.615 30.7822 199.615 30.1175C199.615 29.4329 199.82 28.8746 200.231 28.4396C200.641 28.0071 201.185 27.7905 201.861 27.7905C202.502 27.7905 203.017 27.9897 203.407 28.3891C203.798 28.7886 203.993 29.3185 203.993 29.9773ZM209.002 31.1516V28.6532L207.429 32.2339L207.23 32.2561L205.686 28.7452V30.9699C205.686 31.3429 205.689 31.6004 205.695 31.7436C205.702 31.8278 205.739 31.8819 205.81 31.9072L206.271 32.0426L206.281 32.2339C205.905 32.2242 205.64 32.2194 205.483 32.2194C205.322 32.2194 205.037 32.2242 204.624 32.2339L204.605 32.0426L205.136 31.8837C205.207 31.8584 205.246 31.8109 205.251 31.7388C205.257 31.6178 205.261 31.4145 205.261 31.1275V29.1802C205.261 28.809 205.257 28.5533 205.251 28.4096C205.246 28.3271 205.207 28.273 205.136 28.2471L204.605 28.0883L204.591 27.8976C205.017 27.9072 205.312 27.9114 205.483 27.9114C205.709 27.9114 205.949 27.9084 206.198 27.9018L207.543 31.0018L208.897 27.9018C209.115 27.9084 209.309 27.9114 209.477 27.9114C209.714 27.9114 210.038 27.9072 210.45 27.8976L210.47 28.0883L209.939 28.2471C209.868 28.273 209.829 28.3205 209.819 28.3921C209.813 28.513 209.81 28.717 209.81 29.0033V30.9464C209.81 31.3206 209.813 31.5781 209.819 31.7213C209.829 31.8043 209.868 31.8584 209.939 31.8837L210.47 32.0426L210.479 32.2339C210.057 32.2242 209.697 32.2194 209.394 32.2194C209.12 32.2194 208.801 32.2242 208.435 32.2339L208.416 32.0426L208.877 31.9072C208.948 31.8819 208.988 31.8344 208.992 31.7628C208.999 31.6449 209.002 31.441 209.002 31.1516ZM212.556 30.9843C212.556 31.3567 212.559 31.6148 212.564 31.758C212.57 31.8452 212.61 31.8994 212.681 31.9204L213.094 32.0426L213.104 32.2339C212.759 32.2242 212.438 32.2194 212.14 32.2194C211.837 32.2194 211.477 32.2242 211.065 32.2339L211.042 32.0426L211.576 31.8837C211.647 31.8584 211.687 31.8109 211.693 31.7388C211.699 31.6178 211.702 31.4145 211.702 31.1275V29.1844C211.702 28.8108 211.699 28.5533 211.693 28.4096C211.687 28.3271 211.647 28.273 211.576 28.2471L211.042 28.0883L211.034 27.8976C211.457 27.9072 211.825 27.9114 212.135 27.9114H214.839C215.149 27.9114 215.513 27.9072 215.927 27.8976L215.946 28.0883L215.415 28.2471C215.341 28.273 215.302 28.3205 215.296 28.3921C215.289 28.513 215.286 28.717 215.286 29.0033V30.9464C215.286 31.3206 215.289 31.5781 215.296 31.7213C215.302 31.8043 215.341 31.8584 215.415 31.8837L215.946 32.0426L215.956 32.2339C215.534 32.2242 215.172 32.2194 214.871 32.2194C214.566 32.2194 214.249 32.2242 213.916 32.2339L213.897 32.0426L214.308 31.9204C214.38 31.8994 214.417 31.853 214.423 31.782C214.43 31.6593 214.432 31.4554 214.432 31.166V28.3223H212.556V30.9843ZM219.08 30.1078C218.406 30.1078 217.946 30.1746 217.7 30.3082C217.453 30.4417 217.33 30.6661 217.33 30.9843C217.33 31.2791 217.412 31.4891 217.576 31.6112C217.738 31.7339 217.96 31.7947 218.239 31.7947C218.557 31.7947 218.833 31.7406 219.07 31.6323L219.08 30.1078ZM216.842 28.187C217.442 27.9229 217.973 27.7905 218.433 27.7905C218.904 27.7905 219.27 27.9151 219.533 28.1635C219.796 28.4114 219.927 28.7711 219.924 29.2403L219.9 31.1805C219.896 31.3375 219.902 31.465 219.911 31.5625C219.922 31.6575 219.95 31.7327 219.995 31.7833C220.039 31.8344 220.106 31.8705 220.196 31.8904C220.284 31.9108 220.404 31.9216 220.555 31.9246L220.579 32.1081C220.446 32.1605 220.284 32.2128 220.094 32.2657C219.903 32.3199 219.774 32.3452 219.707 32.3452C219.409 32.3452 219.204 32.1893 219.092 31.8789C218.662 32.1923 218.256 32.35 217.875 32.35C217.446 32.35 217.103 32.2435 216.843 32.0299C216.584 31.8188 216.455 31.5174 216.455 31.1275C216.455 30.6505 216.665 30.2974 217.088 30.07C217.511 29.8438 218.174 29.7301 219.08 29.7301L219.085 29.3661C219.087 29.0177 218.999 28.7597 218.821 28.593C218.642 28.424 218.368 28.3398 217.999 28.3398C217.72 28.3398 217.37 28.3939 216.948 28.4992L216.842 28.187ZM225.456 31.7213C225.46 31.8043 225.5 31.8584 225.571 31.8837L226.106 32.0426L226.115 32.2339C225.69 32.2242 225.328 32.2194 225.026 32.2194C224.725 32.2194 224.391 32.2242 224.024 32.2339L224.007 32.0426L224.469 31.9072C224.539 31.8819 224.577 31.8344 224.584 31.7628C224.59 31.6449 224.593 31.441 224.593 31.1516V30.1439H222.568V30.9699C222.568 31.3429 222.571 31.6004 222.576 31.7436C222.582 31.8278 222.622 31.8819 222.692 31.9072L223.154 32.0426L223.163 32.2339C222.786 32.2242 222.45 32.2194 222.152 32.2194C221.848 32.2194 221.489 32.2242 221.077 32.2339L221.054 32.0426L221.588 31.8837C221.659 31.8584 221.698 31.8109 221.705 31.7388C221.711 31.6178 221.714 31.4145 221.714 31.1275V29.1802C221.714 28.809 221.711 28.5533 221.705 28.4096C221.698 28.3271 221.659 28.273 221.588 28.2471L221.054 28.0883L221.045 27.8976C221.469 27.9072 221.832 27.9114 222.133 27.9114C222.436 27.9114 222.769 27.9072 223.135 27.8976L223.154 28.0883L222.692 28.2231C222.622 28.2489 222.582 28.2971 222.576 28.3687C222.571 28.489 222.568 28.6929 222.568 28.9792V29.7433H224.593V29.1609C224.593 28.7885 224.59 28.5311 224.584 28.3873C224.577 28.3031 224.539 28.2489 224.469 28.2231L224.007 28.0883L223.998 27.8976C224.372 27.9072 224.709 27.9114 225.007 27.9114C225.312 27.9114 225.669 27.9072 226.082 27.8976L226.106 28.0883L225.571 28.2471C225.5 28.273 225.46 28.3205 225.456 28.3921C225.45 28.513 225.446 28.717 225.446 29.0033V30.9464C225.446 31.3206 225.45 31.5781 225.456 31.7213Z" fill="#C74E62"/>
<path fill-rule="evenodd" clip-rule="evenodd" d="M228.181 31.743C228.181 31.8273 228.22 31.8814 228.301 31.9067L228.767 32.042L228.776 32.2333C228.4 32.2237 228.066 32.2189 227.775 32.2189C227.471 32.2189 227.112 32.2237 226.7 32.2333L226.678 32.042L227.212 31.8832C227.282 31.8579 227.322 31.8104 227.328 31.7382C227.334 31.6173 227.337 31.414 227.337 31.127V29.1839C227.337 28.8103 227.334 28.5528 227.328 28.409C227.322 28.3266 227.282 28.2725 227.212 28.2466L226.678 28.0878L226.668 27.8971C227.091 27.9067 227.455 27.9109 227.756 27.9109C228.052 27.9109 228.382 27.9067 228.748 27.8971L228.767 28.0878L228.306 28.2226C228.235 28.2484 228.195 28.2966 228.191 28.3681C228.184 28.4885 228.181 28.6924 228.181 28.9787V30.8202L230.331 28.6148V28.3868C230.331 28.3026 230.293 28.2484 230.215 28.2226L229.75 28.0878L229.74 27.8971C230.115 27.9067 230.449 27.9109 230.741 27.9109C231.046 27.9109 231.405 27.9067 231.815 27.8971L231.839 28.0878L231.303 28.2466C231.233 28.2725 231.195 28.32 231.188 28.3916C231.182 28.5125 231.18 28.7165 231.18 29.0028V30.9459C231.18 31.3201 231.182 31.5776 231.188 31.7208C231.195 31.8038 231.233 31.8579 231.303 31.8832L231.839 32.042L231.849 32.2333C231.424 32.2237 231.063 32.2189 230.763 32.2189C230.466 32.2189 230.134 32.2237 229.768 32.2333L229.75 32.042L230.211 31.9067C230.282 31.8814 230.32 31.8339 230.326 31.7623C230.332 31.6444 230.335 31.4404 230.335 31.1511V29.1604L228.181 31.3658V31.743ZM235.226 30.363H234.696C234.655 30.3666 234.621 30.3732 234.593 30.3829C234.566 30.3919 234.543 30.4051 234.522 30.4238C234.502 30.443 234.483 30.4653 234.464 30.4924C234.447 30.5176 234.426 30.5477 234.404 30.5832C234.323 30.7167 234.242 30.8533 234.166 30.9923C234.092 31.1318 234.017 31.2708 233.943 31.4074C233.861 31.5632 233.776 31.7033 233.689 31.8291C233.603 31.9548 233.516 32.0498 233.427 32.1118C233.381 32.1395 233.337 32.1635 233.292 32.184C233.25 32.2044 233.201 32.2189 233.145 32.2297C233.089 32.2412 233.028 32.249 232.959 32.2538C232.889 32.2586 232.808 32.2598 232.711 32.2598C232.518 32.2598 232.346 32.2508 232.194 32.2285L232.181 32.0523C232.303 32.0264 232.411 31.9981 232.502 31.9674C232.592 31.9355 232.675 31.8832 232.749 31.808C232.834 31.7244 232.922 31.6143 233.014 31.4759C233.105 31.337 233.196 31.186 233.288 31.0205C233.365 30.89 233.439 30.7594 233.509 30.6277C233.581 30.4953 233.656 30.3666 233.735 30.2427C233.102 30.0435 232.786 29.6664 232.786 29.1141C232.786 28.7261 232.945 28.4235 233.262 28.2087C233.581 27.9951 234.004 27.8868 234.533 27.8868C234.724 27.8868 234.905 27.8923 235.073 27.9001C235.242 27.9079 235.431 27.9109 235.637 27.9109C235.938 27.9109 236.295 27.9067 236.711 27.8971L236.73 28.0878L236.195 28.2466C236.12 28.2743 236.082 28.323 236.08 28.3916C236.076 28.4536 236.073 28.5348 236.071 28.6334C236.07 28.7339 236.07 28.8566 236.07 29.0028V30.9459C236.07 31.2846 236.073 31.5421 236.08 31.7208C236.082 31.8038 236.12 31.8579 236.195 31.8832L236.73 32.042L236.739 32.2333C236.314 32.2237 235.954 32.2189 235.654 32.2189C235.354 32.2189 235.023 32.2237 234.662 32.2333L234.64 32.042L235.102 31.9067C235.176 31.8784 235.214 31.8303 235.217 31.7623C235.22 31.7304 235.221 31.6793 235.223 31.6077C235.224 31.5361 235.226 31.4266 235.226 31.2768V30.363ZM235.226 28.2833C235.139 28.2767 235.061 28.2725 234.989 28.2676C234.915 28.2628 234.851 28.261 234.796 28.261C234.07 28.261 233.708 28.557 233.708 29.1508C233.708 29.4468 233.798 29.6712 233.977 29.8258C234.158 29.978 234.447 30.0562 234.843 30.0562H235.226V28.2833Z" fill="#C74E62"/>
</svg>
