<svg width="25" height="25" viewBox="0 0 25 25" fill="none" xmlns="http://www.w3.org/2000/svg">
    <path d="M12.1915 13.9443C11.5285 13.9443 10.8926 13.6809 10.4238 13.2121C9.95492 12.7433 9.69153 12.1074 9.69153 11.4443C9.69153 10.7813 9.95492 10.1454 10.4238 9.67657C10.8926 9.20773 11.5285 8.94434 12.1915 8.94434C12.8546 8.94434 13.4905 9.20773 13.9593 9.67657C14.4281 10.1454 14.6915 10.7813 14.6915 11.4443C14.6915 11.7726 14.6269 12.0977 14.5012 12.401C14.3756 12.7044 14.1914 12.98 13.9593 13.2121C13.7271 13.4442 13.4516 13.6284 13.1482 13.754C12.8449 13.8797 12.5198 13.9443 12.1915 13.9443ZM12.1915 4.44434C10.335 4.44434 8.55454 5.18183 7.24178 6.49459C5.92903 7.80734 5.19153 9.58782 5.19153 11.4443C5.19153 16.6943 12.1915 24.4443 12.1915 24.4443C12.1915 24.4443 19.1915 16.6943 19.1915 11.4443C19.1915 9.58782 18.454 7.80734 17.1413 6.49459C15.8285 5.18183 14.048 4.44434 12.1915 4.44434Z"
          fill="#494949"/>
</svg>
