<svg width="25" height="25" viewBox="0 0 25 25" fill="none" xmlns="http://www.w3.org/2000/svg">
<path fill-rule="evenodd" clip-rule="evenodd" d="M7.35675 2.75544C6.1439 2.59001 4.91561 2.82573 3.95561 3.44287H3.95475C2.9819 4.06773 2.29704 5.08001 2.22247 6.39316C2.09304 8.66801 2.51218 11.8103 4.60533 15.436C6.66847 19.0094 9.19018 21.2337 11.2422 22.576C13.6473 24.1506 16.4819 22.8537 17.7248 20.518C17.9081 20.1734 18.0029 19.7887 18.0008 19.3984C17.9987 19.008 17.8998 18.6243 17.7128 18.2817L16.8196 16.6437C16.617 16.2724 16.3431 15.9447 16.0136 15.6794C15.6841 15.4141 15.3055 15.2165 14.8995 15.0978C14.4934 14.9792 14.068 14.9418 13.6475 14.988C13.227 15.0341 12.8197 15.1627 12.449 15.3666L11.3322 15.9812C10.9645 16.1834 10.6079 16.1234 10.4099 15.922C9.35647 14.8472 8.1479 12.9726 7.69361 11.5892C7.61818 11.3586 7.71333 11.044 8.05361 10.8177L9.51761 9.84144C10.0823 9.46469 10.4899 8.89472 10.664 8.23862C10.8381 7.58252 10.7666 6.88543 10.463 6.2783L9.35733 4.06516C9.18579 3.72206 8.93312 3.42601 8.62123 3.2027C8.30935 2.9794 7.94768 2.83558 7.56761 2.78373L7.35675 2.75544Z" fill="#3D3D3D"/>
</svg>
